# xmcd
#
# Track frame offsets:
#	150
#	16316
#	39637
#	66574
#	86304
#	90699
#	102770
#	117242
#	131727
#
# Disc length: 2035 seconds
#
# Revision: 15
# Processed by: cddbd v1.5.2PL0 Copyright (c) Steve Scherf et al.
# Submitted via: Jack! The Knife 20 Magnifico
#
DISCID=7207f109
DTITLE=Van Halen - Women And Children First
DYEAR=1980
DGENRE=Hard Rock
TTITLE0=And The Cradle Will Rock...
TTITLE1=Everybody Wants Some!!
TTITLE2=Fools
TTITLE3=Romeo Delight
TTITLE4=Tora! Tora!
TTITLE5=Loss Of Control
TTITLE6=Take Your Whiskey Home
TTITLE7=Could This Be Magic?
TTITLE8=In A Simple Rhyme
EXTD=Ted Templeman
EXTT0=E. Van Halen, Anthony, Lee Roth, A. Van Halen
EXTT1=E. Van Halen, Anthony, Lee Roth, A. Van Halen
EXTT2=E. Van Halen, Anthony, Lee Roth, A. Van Halen
EXTT3=E. Van Halen, Anthony, Lee Roth, A. Van Halen
EXTT4=E. Van Halen, Anthony, Lee Roth, A. Van Halen
EXTT5=E. Van Halen, Anthony, Lee Roth, A. Van Halen
EXTT6=E. Van Halen, Anthony, Lee Roth, A. Van Halen
EXTT7=E. Van Halen, Anthony, Lee Roth, A. Van Halen
EXTT8=E. Van Halen, Anthony, Lee Roth, A. Van Halen
PLAYORDER=
